<svg width="25" height="21" viewBox="0 0 25 21" fill="none" xmlns="http://www.w3.org/2000/svg">
<path d="M4.20801 5.29175H18.5726C18.8637 5.29176 19.1515 5.35276 19.4175 5.47082C19.6836 5.58887 19.9219 5.76137 20.1172 5.97718C20.3125 6.19299 20.4604 6.44733 20.5514 6.72381C20.6424 7.00028 20.6745 7.29276 20.6455 7.58237L20.0205 13.8324C19.9691 14.3464 19.7285 14.8231 19.3455 15.1697C18.9624 15.5164 18.4642 15.7084 17.9476 15.7084H7.99968C7.51788 15.7086 7.0509 15.5418 6.67826 15.2364C6.30562 14.931 6.05036 14.5059 5.95592 14.0334L4.20801 5.29175Z" stroke="#2C3138" stroke-width="1.5" stroke-linecap="round" stroke-linejoin="round"/>
<path d="M4.20801 5.29167L3.36426 1.91354C3.30783 1.68828 3.17775 1.48834 2.99468 1.34547C2.81161 1.20261 2.58606 1.12501 2.35384 1.125H1.08301" stroke="#2C3138" stroke-width="1.5" stroke-linecap="round" stroke-linejoin="round"/>
<path d="M7.33301 19.875H9.41634" stroke="#2C3138" stroke-width="1.5" stroke-linecap="round" stroke-linejoin="round"/>
<path d="M15.667 19.875H17.7503" stroke="#2C3138" stroke-width="1.5" stroke-linecap="round" stroke-linejoin="round"/>
<circle cx="21" cy="5" r="4" fill="#FFAF00"/>
</svg>
