<svg width="25" height="24" viewBox="0 0 25 24" fill="none" xmlns="http://www.w3.org/2000/svg">
<path d="M4.83301 6.22632H20.9213C21.2473 6.22633 21.5697 6.29465 21.8677 6.42687C22.1656 6.5591 22.4326 6.75229 22.6513 6.994C22.8701 7.23571 23.0357 7.52057 23.1376 7.83022C23.2396 8.13988 23.2754 8.46745 23.243 8.79182L22.543 15.7918C22.4854 16.3676 22.216 16.9014 21.787 17.2897C21.3579 17.6779 20.8 17.893 20.2213 17.893H9.07967C8.54006 17.8932 8.01705 17.7064 7.59969 17.3643C7.18234 17.0223 6.89644 16.5461 6.79067 16.017L4.83301 6.22632Z" stroke="#2C3138" stroke-width="1.5" stroke-linecap="round" stroke-linejoin="round"/>
<path d="M4.83301 6.22624L3.88801 2.44274C3.82481 2.19045 3.67912 1.96651 3.47408 1.8065C3.26905 1.64649 3.01642 1.55958 2.75634 1.55957H1.33301" stroke="#2C3138" stroke-width="1.5" stroke-linecap="round" stroke-linejoin="round"/>
<path d="M8.33301 22.5596H10.6663" stroke="#2C3138" stroke-width="1.5" stroke-linecap="round" stroke-linejoin="round"/>
<path d="M17.667 22.5596H20.0003" stroke="#2C3138" stroke-width="1.5" stroke-linecap="round" stroke-linejoin="round"/>
</svg>
