<svg width="201" height="200" viewBox="0 0 201 200" fill="none" xmlns="http://www.w3.org/2000/svg">
<path d="M190.019 108.243L193.433 108.401L193.478 107.444L200.714 107.779L200.971 102.223L199.653 102.162C197.305 102.053 194.907 101.474 193.787 100.774L193.825 99.9479L190.411 99.7897L190.343 101.239L192.464 101.337L192.206 106.893L190.086 106.795L190.019 108.243ZM193.547 105.947L193.712 102.379C194.754 102.955 196.974 103.502 199.095 103.6L199.61 103.624L199.489 106.222L193.547 105.947Z" fill="#FFAF00"/>
<path d="M200.152 114.329C200.533 111.744 198.808 109.963 196.328 109.597C193.694 109.209 191.661 110.582 191.304 113.001C190.949 115.408 192.498 117.321 195.132 117.709C197.754 118.095 199.801 116.712 200.152 114.329ZM198.91 114.122C198.679 115.687 197.298 116.501 195.364 116.216C193.43 115.931 192.319 114.75 192.547 113.208C192.781 111.619 194.162 110.805 196.132 111.095C198.042 111.376 199.139 112.568 198.91 114.122Z" fill="#FFAF00"/>
<path d="M196.589 129.654L197.12 127.637L191.244 123.714L198.312 123.104L198.845 121.075L190.587 118.905L190.227 120.273L196.595 121.946L189.608 122.627L189.297 123.809L195.061 127.778L188.693 126.105L188.33 127.484L196.589 129.654Z" fill="#FFAF00"/>
<path d="M191.969 141.625L194.636 135.256L186.759 131.961L186.181 133.343L192.863 136.139L191.353 139.743L184.671 136.948L184.092 138.33L191.969 141.625Z" fill="#FFAF00"/>
<path d="M180.227 145.765L187.764 149.776L190.385 144.856L186.092 142.381C184.21 141.298 184.112 140.716 184.4 140.177C184.456 140.071 184.612 139.828 184.76 139.704L183.744 139.163C183.579 139.319 183.342 139.587 183.184 139.883C182.609 140.962 182.988 142.264 185.05 143.47L188.565 145.518L187.325 147.845L180.931 144.442L180.227 145.765Z" fill="#FFAF00"/>
<path d="M179.185 147.532L178.225 148.981L181.658 155.653L176.199 152.039L175.371 153.289L182.49 158.001L183.45 156.552L180.017 149.88L185.477 153.494L186.305 152.245L179.185 147.532Z" fill="#FFAF00"/>
<path d="M176.585 165.499L177.527 164.334L174.888 162.201L177.346 159.162L179.986 161.295L180.928 160.13L174.288 154.764L173.345 155.929L176.33 158.341L173.871 161.379L170.887 158.968L169.944 160.133L176.585 165.499Z" fill="#FFAF00"/>
<path d="M170.52 171.883L175.358 166.904L174.429 166.002L172.532 167.954L167.336 162.91L166.292 163.984L171.488 169.029L169.591 170.981L170.52 171.883Z" fill="#FFAF00"/>
<path d="M163.29 170.155L163.283 170.129C163.074 169.214 162.978 168.647 163.394 168.285C163.792 167.938 164.079 167.848 164.259 167.818L163.432 166.868C163.18 166.944 162.82 167.115 162.531 167.367C161.816 167.989 161.552 168.854 161.97 170.429L163.93 177.735L165.151 176.673L163.735 171.834L168.299 173.934L169.547 172.848L163.29 170.155Z" fill="#FFAF00"/>
<path d="M153.292 179.007L154.508 178.13C153.897 177.018 153.872 175.898 155 175.084C156.478 174.017 157.99 174.923 158.917 176.206C159.836 177.479 160.191 179.219 158.732 180.271C157.837 180.917 156.828 180.891 156.059 180.174L154.853 181.044C156.245 182.48 158.076 182.312 159.457 181.315C161.557 179.8 161.56 177.285 160.142 175.322C158.562 173.135 156.24 172.622 154.285 174.033C152.554 175.281 152.204 177.234 153.292 179.007Z" fill="#FFAF00"/>
<path d="M151.168 186.475L152.544 185.669L151.068 176.629L149.733 177.41L150.154 179.789L147.236 181.498L145.387 179.955L144 180.767L151.168 186.475ZM148.147 182.27L150.393 180.955L151.063 184.731L148.147 182.27Z" fill="#FFAF00"/>
<path d="M129.521 184.732L130.758 187.917L131.652 187.57L134.273 194.319L139.461 192.307L138.984 191.078C138.133 188.887 137.693 186.461 137.88 185.154L138.652 184.855L137.415 181.67L136.062 182.195L136.83 184.173L131.642 186.185L130.874 184.207L129.521 184.732ZM133.05 187.028L136.382 185.735C136.276 186.921 136.674 189.171 137.442 191.149L137.629 191.629L135.202 192.57L133.05 187.028Z" fill="#FFAF00"/>
<path d="M128.076 196.441C130.595 195.738 131.521 193.439 130.847 191.026C130.132 188.463 128.05 187.164 125.694 187.822C123.349 188.476 122.23 190.667 122.946 193.23C123.659 195.782 125.755 197.089 128.076 196.441ZM127.761 195.222C126.236 195.648 124.93 194.718 124.405 192.836C123.879 190.954 124.508 189.459 126.009 189.04C127.557 188.608 128.863 189.538 129.398 191.455C129.918 193.314 129.274 194.8 127.761 195.222Z" fill="#FFAF00"/>
<path d="M112.516 199.382L114.577 199.054L115.801 192.098L119.208 198.317L121.28 197.987L119.938 189.559L118.54 189.781L119.575 196.28L116.136 190.164L114.928 190.356L113.618 197.228L112.583 190.729L111.173 190.953L112.516 199.382Z" fill="#FFAF00"/>
<path d="M99.7795 200L106.686 199.84L106.488 191.308L104.989 191.343L105.157 198.581L101.248 198.671L101.081 191.433L99.5818 191.468L99.7795 200Z" fill="#FFAF00"/>
<path d="M90.7346 190.897L90.0765 199.406L95.6367 199.835L96.1859 194.912C96.4249 192.755 96.919 192.432 97.5289 192.479C97.6484 192.489 97.9336 192.535 98.1074 192.62L98.1961 191.473C97.9864 191.385 97.6461 191.274 97.3113 191.248C96.0916 191.154 95.0501 192.023 94.7704 194.394L94.3017 198.434L91.671 198.231L92.2293 191.012L90.7346 190.897Z" fill="#FFAF00"/>
<path d="M88.7346 190.66L87.0205 190.367L82.2994 196.2L83.403 189.749L81.9253 189.496L80.4861 197.909L82.2003 198.202L86.9214 192.369L85.8177 198.82L87.2954 199.073L88.7346 190.66Z" fill="#FFAF00"/>
<path d="M71.2713 195.528L72.7183 195.92L73.606 192.646L77.3797 193.668L76.492 196.942L77.939 197.334L80.1725 189.096L78.7255 188.705L77.7217 192.407L73.948 191.385L74.9518 187.682L73.5048 187.291L71.2713 195.528Z" fill="#FFAF00"/>
<path d="M63.055 192.567L69.5656 194.981L70.0161 193.767L67.4636 192.82L69.983 186.032L68.5774 185.511L66.058 192.299L63.5055 191.353L63.055 192.567Z" fill="#FFAF00"/>
<path d="M61.7272 185.24L61.7483 185.223C62.5029 184.665 62.984 184.348 63.4829 184.584C63.9601 184.809 64.1583 185.035 64.2583 185.188L64.796 184.05C64.6252 183.85 64.3242 183.589 63.9772 183.425C63.1204 183.021 62.2215 183.127 60.9461 184.142L55.0385 188.87L56.5026 189.561L60.3675 186.322L60.2768 191.342L61.7734 192.049L61.7272 185.24Z" fill="#FFAF00"/>
<path d="M49.6283 179.64L50.9191 180.403C51.6938 179.398 52.7108 178.927 53.9086 179.634C55.4782 180.561 55.2536 182.307 54.4484 183.67C53.6493 185.022 52.1959 186.043 50.647 185.129C49.697 184.568 49.3162 183.633 49.6653 182.642L48.3849 181.886C47.6262 183.735 48.5134 185.345 49.9797 186.21C52.2102 187.527 54.5173 186.523 55.7495 184.438C57.122 182.116 56.6618 179.784 54.5862 178.558C52.7482 177.473 50.8179 177.934 49.6283 179.64Z" fill="#FFAF00"/>
<path d="M41.9361 180.687L43.2261 181.625L50.9235 176.652L49.6723 175.743L47.66 177.081L44.925 175.093L45.5989 172.781L44.2992 171.836L41.9361 180.687ZM44.5819 176.237L46.6865 177.767L43.4934 179.892L44.5819 176.237Z" fill="#FFAF00"/>
<path d="M34.8739 160.202L32.4569 162.617L33.1354 163.295L28.0131 168.415L31.9481 172.348L32.881 171.415C34.5431 169.754 36.587 168.372 37.859 168.016L38.4442 168.601L40.8611 166.186L39.835 165.16L38.3339 166.66L34.399 162.728L35.9 161.227L34.8739 160.202ZM34.1954 164.355L36.7226 166.881C35.5947 167.262 33.6951 168.534 32.194 170.034L31.8294 170.398L29.9891 168.559L34.1954 164.355Z" fill="#FFAF00"/>
<path d="M23.5202 163.535C25.1715 165.561 27.6508 165.49 29.5942 163.908C31.6585 162.228 32.0173 159.802 30.472 157.906C28.9343 156.019 26.4774 155.871 24.4131 157.551C22.3581 159.225 21.9977 161.667 23.5202 163.535ZM24.5117 162.759C23.5118 161.532 23.8426 159.964 25.3582 158.73C26.8739 157.496 28.4958 157.474 29.4805 158.682C30.4955 159.928 30.1648 161.496 28.6212 162.752C27.1241 163.971 25.504 163.976 24.5117 162.759Z" fill="#FFAF00"/>
<path d="M14.5992 150.564L15.7323 152.316L22.5924 150.623L18.2786 156.251L19.4183 158.013L26.589 153.379L25.8205 152.191L20.2914 155.764L24.4985 150.148L23.8343 149.121L17.0158 150.701L22.5449 147.128L21.7699 145.93L14.5992 150.564Z" fill="#FFAF00"/>
<path d="M8.92245 139.232L11.8487 145.486L19.584 141.871L18.9489 140.514L12.387 143.581L10.7308 140.041L17.2928 136.974L16.6577 135.617L8.92245 139.232Z" fill="#FFAF00"/>
<path d="M13.7043 127.579L5.65441 130.427L7.51518 135.681L12.2406 134.188C14.311 133.532 14.8062 133.852 15.0103 134.429C15.0503 134.542 15.1237 134.821 15.1159 135.014L16.2013 134.63C16.1971 134.403 16.1602 134.047 16.0482 133.731C15.64 132.578 14.4227 131.979 12.1408 132.684L8.25603 133.893L7.37566 131.407L14.2045 128.992L13.7043 127.579Z" fill="#FFAF00"/>
<path d="M13.1357 125.768L12.7128 124.082L5.46853 122.116L11.8203 120.524L11.4557 119.071L3.17283 121.147L3.59574 122.833L10.84 124.799L4.48823 126.39L4.85281 127.844L13.1357 125.768Z" fill="#FFAF00"/>
<path d="M1.62147 111.796L1.84578 113.277L5.20167 112.769L5.78667 116.633L2.43078 117.141L2.65508 118.622L11.0982 117.345L10.8739 115.864L7.07922 116.438L6.49423 112.574L10.2889 112L10.0646 110.519L1.62147 111.796Z" fill="#FFAF00"/>
<path d="M0.982983 102.854L1.38466 109.783L2.67777 109.708L2.52029 106.991L9.7521 106.573L9.66538 105.077L2.43357 105.496L2.27609 102.779L0.982983 102.854Z" fill="#FFAF00"/>
<path d="M7.13404 98.5415L7.15769 98.5541C7.97294 99.0198 8.45638 99.3327 8.44148 99.8838C8.42722 100.411 8.29988 100.683 8.19976 100.837L9.45859 100.871C9.57297 100.634 9.69124 100.253 9.70161 99.8699C9.72721 98.9233 9.26838 98.1435 7.82518 97.385L1.11722 93.8823L1.07348 95.4999L5.59622 97.7325L0.960727 99.6698L0.916016 101.323L7.13404 98.5415Z" fill="#FFAF00"/>
<path d="M7.34001 85.3145L7.16705 86.8029C8.39995 87.1029 9.24393 87.8404 9.08342 89.2216C8.8731 91.0314 7.18456 91.5353 5.61202 91.3528C4.05139 91.1716 2.52752 90.2586 2.73507 88.4726C2.86237 87.3772 3.56265 86.65 4.61071 86.5665L4.78229 85.09C2.7834 85.1476 1.67153 86.6114 1.47504 88.3022C1.17616 90.8741 3.03121 92.5737 5.43767 92.853C8.11814 93.1642 10.0639 91.7972 10.3421 89.4039C10.5884 87.2845 9.38301 85.7086 7.34001 85.3145Z" fill="#FFAF00"/>
<path d="M3.25461 78.7053L2.91993 80.2641L10.5888 85.2803L10.9134 83.7684L8.87329 82.4727L9.5829 79.1676L11.9703 78.846L12.3075 77.2755L3.25461 78.7053ZM8.39758 79.318L7.85154 81.8612L4.61295 79.8058L8.39758 79.318Z" fill="#FFAF00"/>
<path d="M19.2634 63.6632L16.0815 62.4152L15.731 63.3079L8.98774 60.663L6.95485 65.8405L8.18293 66.3222C10.3711 67.1804 12.4555 68.5001 13.2907 69.5231L12.9884 70.293L16.1702 71.541L16.7004 70.1908L14.7243 69.4157L16.7572 64.2383L18.7333 65.0133L19.2634 63.6632ZM15.1834 64.7026L13.8778 68.0278C13.0769 67.1471 11.1513 65.9154 9.17518 65.1404L8.69511 64.9521L9.64584 62.5307L15.1834 64.7026Z" fill="#FFAF00"/>
<path d="M11.6011 54.7073C10.4065 57.0318 11.4656 59.2734 13.6953 60.4181C16.0636 61.634 18.4307 60.9896 19.5486 58.8144C20.661 56.6499 19.8118 54.3409 17.4435 53.125C15.0858 51.9146 12.7026 52.5642 11.6011 54.7073ZM12.7103 55.3037C13.4337 53.8963 15.0035 53.5703 16.7424 54.463C18.4813 55.3557 19.1518 56.8319 18.4394 58.218C17.7051 59.6468 16.1353 59.9728 14.3644 59.0637C12.6468 58.1819 11.9925 56.7005 12.7103 55.3037Z" fill="#FFAF00"/>
<path d="M19.8841 41.3857L18.7318 43.1246L23.0297 48.7302L16.1424 47.0321L14.9834 48.781L22.1027 53.4937L22.8841 52.3145L17.3947 48.6806L24.2285 50.2858L24.904 49.2665L20.7259 43.6539L26.2153 47.2877L27.0034 46.0985L19.8841 41.3857Z" fill="#FFAF00"/>
<path d="M27.8088 31.8308L23.2537 37.0217L29.6737 42.6491L30.6622 41.5227L25.2161 36.7488L27.7941 33.8109L33.2402 38.5848L34.2287 37.4583L27.8088 31.8308Z" fill="#FFAF00"/>
<path d="M40.2994 31.5689L34.4393 25.3612L30.3829 29.1863L33.66 32.9023C35.0973 34.5298 35.004 35.1121 34.5591 35.5317C34.4719 35.6139 34.2461 35.7939 34.0658 35.865L34.856 36.702C35.0624 36.6062 35.373 36.4287 35.6172 36.1984C36.507 35.3593 36.5634 34.0042 34.9953 32.2034L32.3186 29.1408L34.2377 27.3311L39.209 32.5972L40.2994 31.5689Z" fill="#FFAF00"/>
<path d="M41.7626 30.249L43.1345 29.1809L42.006 21.7637L46.0299 26.927L47.2126 26.0063L41.9654 19.2731L40.5934 20.3412L41.7219 27.7584L37.6981 22.5951L36.5154 23.5158L41.7626 30.249Z" fill="#FFAF00"/>
<path d="M49.9064 14.0257L48.6416 14.83L50.4636 17.6921L47.1649 19.7898L45.3429 16.9277L44.0781 17.7321L48.6621 24.9327L49.9269 24.1284L47.8667 20.8921L51.1654 18.7944L53.2256 22.0307L54.4904 21.2263L49.9064 14.0257Z" fill="#FFAF00"/>
<path d="M57.9396 9.73658L51.7627 12.9077L52.3546 14.0592L54.7762 12.816L58.0861 19.2561L59.4196 18.5715L56.1098 12.1314L58.5314 10.8881L57.9396 9.73658Z" fill="#FFAF00"/>
<path d="M64.3124 13.634L64.3104 13.6608C64.2136 14.5943 64.1226 15.1626 63.6122 15.3717C63.1239 15.5717 62.8231 15.5654 62.6425 15.5357L63.12 16.7003C63.3829 16.7093 63.779 16.6636 64.1341 16.5182C65.0108 16.1591 65.5391 15.4245 65.6501 13.7986L66.1455 6.25063L64.6473 6.86426L64.4314 11.9012L60.7854 8.44607L59.2539 9.07333L64.3124 13.634Z" fill="#FFAF00"/>
<path d="M76.5091 8.48148L75.0763 8.92243C75.2979 10.1712 74.9622 11.2402 73.6326 11.6494C71.8903 12.1856 70.749 10.8437 70.2831 9.33149C69.8208 7.83076 70.0435 6.06902 71.7628 5.53988C72.8173 5.21534 73.7653 5.56324 74.2637 6.48849L75.685 6.05106C74.8275 4.24549 73.0392 3.81757 71.4116 4.31849C68.9358 5.08045 68.1259 7.46186 68.8389 9.77597C69.6331 12.3536 71.6684 13.5834 73.9723 12.8744C76.0126 12.2464 76.9707 10.5092 76.5091 8.48148Z" fill="#FFAF00"/>
<path d="M80.7298 2.11576L79.1677 2.43835L77.668 11.4751L79.1832 11.1623L79.5467 8.77383L82.8588 8.08985L84.1162 10.1436L85.69 9.81855L80.7298 2.11576ZM82.2431 7.06644L79.6944 7.59277L80.2701 3.80189L82.2431 7.06644Z" fill="#FFAF00"/>
<path d="M100.482 10.6581L100.323 7.24552L99.3649 7.28991L99.0295 0.0576432L93.4706 0.31511L93.5317 1.63224C93.6405 3.97914 93.2854 6.41952 92.6918 7.59898L91.8651 7.63727L92.0233 11.0498L93.473 10.9827L93.3747 8.86331L98.9336 8.60584L99.0319 10.7252L100.482 10.6581ZM97.8673 7.35927L94.2971 7.52462C94.7749 6.43453 95.1143 4.17487 95.0161 2.05548L94.9922 1.5406L97.5919 1.42019L97.8673 7.35927Z" fill="#FFAF00"/>
<path d="M106.265 0.00853061C103.655 -0.142624 102.032 1.73256 101.887 4.2336C101.733 6.89021 103.281 8.79287 105.723 8.93432C108.154 9.07508 109.923 7.36448 110.077 4.70787C110.23 2.06322 108.672 0.147898 106.265 0.00853061ZM106.168 1.26365C107.749 1.35517 108.682 2.65796 108.569 4.60853C108.456 6.55911 107.377 7.76934 105.82 7.6792C104.216 7.58629 103.282 6.28351 103.397 4.29703C103.509 2.37039 104.6 1.17282 106.168 1.26365Z" fill="#FFAF00"/>
<path d="M122.043 2.21135L119.986 1.85984L116.591 8.05309L115.364 1.06993L113.295 0.716393L111.856 9.12891L113.251 9.36729L114.361 2.88068L115.651 9.7774L116.857 9.98346L120.307 3.89685L119.197 10.3835L120.604 10.6239L122.043 2.21135Z" fill="#FFAF00"/>
<path d="M134.049 5.62561L127.462 3.54391L124.888 11.6814L126.317 12.1331L128.501 5.23L132.229 6.40818L130.045 13.3113L131.475 13.7631L134.049 5.62561Z" fill="#FFAF00"/>
<path d="M139.629 17.0984L142.985 9.25047L137.856 7.06001L135.755 11.5463C134.836 13.5131 134.265 13.66 133.702 13.4198C133.592 13.3727 133.337 13.2376 133.2 13.1008L132.747 14.1589C132.917 14.3099 133.204 14.5236 133.513 14.6555C134.638 15.136 135.903 14.6468 136.93 12.4911L138.671 8.81571L141.097 9.85205L138.25 16.5096L139.629 17.0984Z" fill="#FFAF00"/>
<path d="M141.591 18.0163L143.117 18.8502L149.479 14.8676L146.337 20.61L147.652 21.3289L151.749 13.8407L150.223 13.0068L143.862 16.9893L147.003 11.247L145.688 10.5281L141.591 18.0163Z" fill="#FFAF00"/>
<path d="M159.227 18.7227L157.984 17.8862L156.089 20.7005L152.845 18.5189L154.74 15.7045L153.496 14.868L148.729 21.9487L149.973 22.7852L152.115 19.6029L155.359 21.7845L153.216 24.9669L154.46 25.8034L159.227 18.7227Z" fill="#FFAF00"/>
<path d="M166.326 24.3178L160.942 19.9344L160.124 20.9381L162.235 22.6567L157.66 28.2699L158.822 29.2163L163.397 23.603L165.508 25.3215L166.326 24.3178Z" fill="#FFAF00"/>
<path d="M165.196 31.6016L165.17 31.6105C164.277 31.898 163.719 32.0438 163.322 31.661C162.942 31.2949 162.827 31.0173 162.781 30.8401L161.907 31.7461C162.005 31.9901 162.206 32.3341 162.483 32.6003C163.165 33.2576 164.05 33.445 165.584 32.8916L172.696 30.304L171.53 29.1807L166.831 31.0124L168.526 26.2852L167.334 25.1369L165.196 31.6016Z" fill="#FFAF00"/>
<path d="M175.045 40.9185L174.065 39.7848C173.01 40.4899 171.896 40.6128 170.986 39.5608C169.794 38.1823 170.564 36.5981 171.762 35.5635C172.951 34.5367 174.654 34.0318 175.83 35.3922C176.552 36.2266 176.614 37.2339 175.967 38.0622L176.94 39.1867C178.249 37.6758 177.921 35.8673 176.808 34.5795C175.114 32.6206 172.607 32.8375 170.774 34.4208C168.732 36.1843 168.424 38.5415 170.001 40.3644C171.397 41.9787 173.373 42.1566 175.045 40.9185Z" fill="#FFAF00"/>
<path d="M182.678 42.3671L181.754 41.0677L172.874 43.3323L173.77 44.5927L176.104 43.9641L178.063 46.7193L176.688 48.6962L177.619 50.0054L182.678 42.3671ZM178.753 45.7441L177.245 43.6239L180.949 42.6251L178.753 45.7441Z" fill="#FFAF00"/>
<path d="M182.839 64.006L185.902 62.4903L185.476 61.6309L191.968 58.4187L189.499 53.4343L188.317 54.0193C186.21 55.0616 183.832 55.7169 182.512 55.6474L182.145 54.9062L179.082 56.4219L179.726 57.7217L181.628 56.7804L184.097 61.7649L182.195 62.7062L182.839 64.006ZM184.811 60.2881L183.225 57.0869C184.416 57.0862 186.623 56.4892 188.525 55.5479L188.988 55.3192L190.142 57.6503L184.811 60.2881Z" fill="#FFAF00"/>
<path d="M194.642 64.386C193.724 61.9395 191.351 61.216 189.005 62.0961C186.512 63.031 185.398 65.2156 186.257 67.505C187.113 69.7833 189.394 70.7074 191.887 69.7725C194.368 68.8419 195.489 66.6418 194.642 64.386ZM193.455 64.8058C194.011 66.2872 193.197 67.6678 191.367 68.3542C189.537 69.0406 187.992 68.5443 187.445 67.0853C186.88 65.5815 187.694 64.2008 189.558 63.5018C191.366 62.8238 192.903 63.3356 193.455 64.8058Z" fill="#FFAF00"/>
<path d="M199.004 79.7666L198.497 77.7435L191.457 77.1348L197.356 73.1974L196.846 71.1626L188.563 73.2382L188.907 74.6101L195.294 73.0098L189.499 76.9704L189.797 78.1564L196.761 78.8581L190.374 80.4585L190.721 81.8421L199.004 79.7666Z" fill="#FFAF00"/>
<path d="M200.731 92.3846L199.987 85.5204L191.497 86.4398L191.659 87.9294L198.861 87.1494L199.282 91.0344L192.08 91.8144L192.242 93.304L200.731 92.3846Z" fill="#FFAF00"/>
<path d="M192.462 101.647L201 101.515L200.914 95.9419L195.959 95.8506C193.787 95.8121 193.42 95.3503 193.411 94.739C193.409 94.6192 193.428 94.3311 193.498 94.1502L192.346 94.168C192.278 94.3849 192.199 94.7337 192.204 95.0693C192.223 96.2918 193.186 97.248 195.573 97.3071L199.641 97.4002L199.682 100.037L192.439 100.149L192.462 101.647Z" fill="#FFAF00"/>
<ellipse cx="100.86" cy="99.8899" rx="5.99664" ry="5.9934" fill="#2C3138"/>
</svg>
