<svg width="201" height="200" viewBox="0 0 201 200" fill="none" xmlns="http://www.w3.org/2000/svg">
<path d="M189.093 108.243L192.507 108.401L192.552 107.444L199.788 107.779L200.045 102.223L198.728 102.162C196.379 102.053 193.981 101.474 192.861 100.774L192.899 99.9479L189.485 99.7897L189.418 101.239L191.538 101.337L191.281 106.893L189.16 106.795L189.093 108.243ZM192.621 105.947L192.787 102.379C193.829 102.955 196.048 103.502 198.169 103.6L198.684 103.624L198.563 106.222L192.621 105.947Z" fill="#FFAF00"/>
<path d="M199.226 114.329C199.608 111.744 197.882 109.963 195.402 109.597C192.769 109.209 190.736 110.582 190.379 113.001C190.024 115.408 191.572 117.321 194.206 117.709C196.828 118.095 198.875 116.712 199.226 114.329ZM197.984 114.122C197.753 115.687 196.372 116.501 194.438 116.216C192.505 115.931 191.394 114.75 191.621 113.208C191.855 111.619 193.236 110.805 195.206 111.095C197.116 111.376 198.213 112.568 197.984 114.122Z" fill="#FFAF00"/>
<path d="M195.663 129.654L196.194 127.637L190.319 123.714L197.386 123.104L197.92 121.075L189.661 118.905L189.302 120.273L195.669 121.946L188.683 122.627L188.372 123.809L194.136 127.778L187.768 126.105L187.405 127.484L195.663 129.654Z" fill="#FFAF00"/>
<path d="M191.044 141.625L193.711 135.256L185.834 131.961L185.255 133.343L191.937 136.139L190.428 139.743L183.746 136.948L183.167 138.33L191.044 141.625Z" fill="#FFAF00"/>
<path d="M179.302 145.765L186.838 149.776L189.46 144.856L185.167 142.381C183.285 141.298 183.187 140.716 183.474 140.177C183.531 140.071 183.687 139.828 183.835 139.704L182.819 139.163C182.654 139.319 182.417 139.587 182.259 139.883C181.684 140.962 182.063 142.264 184.125 143.47L187.64 145.518L186.4 147.845L180.006 144.442L179.302 145.765Z" fill="#FFAF00"/>
<path d="M178.26 147.532L177.3 148.981L180.733 155.653L175.274 152.039L174.446 153.288L181.565 158.001L182.525 156.552L179.092 149.88L184.552 153.494L185.379 152.245L178.26 147.532Z" fill="#FFAF00"/>
<path d="M175.66 165.499L176.602 164.334L173.963 162.201L176.421 159.162L179.061 161.295L180.003 160.13L173.363 154.764L172.421 155.929L175.405 158.341L172.947 161.379L169.963 158.968L169.02 160.133L175.66 165.499Z" fill="#FFAF00"/>
<path d="M169.595 171.883L174.434 166.904L173.504 166.002L171.608 167.954L166.412 162.91L165.367 163.984L170.563 169.029L168.666 170.981L169.595 171.883Z" fill="#FFAF00"/>
<path d="M162.366 170.155L162.359 170.129C162.15 169.214 162.054 168.647 162.47 168.285C162.868 167.938 163.154 167.848 163.335 167.818L162.508 166.868C162.256 166.944 161.896 167.115 161.607 167.367C160.892 167.989 160.628 168.854 161.046 170.429L163.006 177.735L164.227 176.673L162.811 171.834L167.374 173.934L168.623 172.848L162.366 170.155Z" fill="#FFAF00"/>
<path d="M152.369 179.007L153.584 178.13C152.974 177.018 152.949 175.898 154.077 175.084C155.555 174.017 157.066 174.923 157.993 176.206C158.912 177.479 159.267 179.219 157.808 180.271C156.913 180.917 155.904 180.891 155.135 180.174L153.929 181.044C155.321 182.48 157.152 182.312 158.533 181.315C160.633 179.8 160.636 177.285 159.218 175.322C157.639 173.135 155.316 172.622 153.362 174.033C151.631 175.281 151.281 177.234 152.369 179.007Z" fill="#FFAF00"/>
<path d="M150.244 186.475L151.621 185.669L150.144 176.629L148.81 177.41L149.231 179.789L146.313 181.498L144.463 179.955L143.077 180.767L150.244 186.475ZM147.224 182.27L149.469 180.955L150.139 184.731L147.224 182.27Z" fill="#FFAF00"/>
<path d="M128.599 184.732L129.836 187.917L130.73 187.57L133.351 194.319L138.538 192.307L138.061 191.078C137.211 188.887 136.77 186.461 136.957 185.154L137.729 184.855L136.492 181.67L135.139 182.195L135.907 184.173L130.72 186.185L129.952 184.207L128.599 184.732ZM132.127 187.028L135.459 185.735C135.353 186.921 135.751 189.171 136.519 191.149L136.706 191.629L134.28 192.57L132.127 187.028Z" fill="#FFAF00"/>
<path d="M127.154 196.441C129.672 195.738 130.599 193.439 129.925 191.026C129.209 188.463 127.128 187.164 124.772 187.822C122.427 188.476 121.308 190.667 122.024 193.23C122.737 195.782 124.832 197.089 127.154 196.441ZM126.839 195.222C125.314 195.648 124.008 194.718 123.483 192.836C122.957 190.954 123.586 189.459 125.087 189.04C126.635 188.608 127.941 189.538 128.476 191.455C128.995 193.314 128.352 194.8 126.839 195.222Z" fill="#FFAF00"/>
<path d="M111.594 199.382L113.655 199.054L114.879 192.098L118.286 198.317L120.358 197.987L119.016 189.559L117.619 189.781L118.654 196.28L115.214 190.164L114.006 190.356L112.696 197.228L111.661 190.729L110.252 190.953L111.594 199.382Z" fill="#FFAF00"/>
<path d="M98.8586 200L105.765 199.84L105.567 191.308L104.068 191.342L104.236 198.581L100.327 198.671L100.16 191.433L98.6609 191.468L98.8586 200Z" fill="#FFAF00"/>
<path d="M89.8141 190.897L89.156 199.406L94.716 199.835L95.2651 194.912C95.5042 192.755 95.9982 192.432 96.608 192.479C96.7276 192.489 97.0127 192.535 97.1865 192.62L97.2753 191.473C97.0656 191.385 96.7253 191.274 96.3905 191.248C95.1709 191.154 94.1293 192.023 93.8498 194.394L93.381 198.434L90.7505 198.231L91.3087 191.012L89.8141 190.897Z" fill="#FFAF00"/>
<path d="M87.8142 190.66L86.1002 190.367L81.3793 196.2L82.4829 189.749L81.0052 189.496L79.5661 197.909L81.2802 198.202L86.0011 192.369L84.8975 198.82L86.3751 199.073L87.8142 190.66Z" fill="#FFAF00"/>
<path d="M70.3518 195.528L71.7987 195.92L72.6864 192.646L76.4599 193.668L75.5722 196.942L77.0191 197.334L79.2525 189.096L77.8056 188.705L76.8018 192.407L73.0283 191.385L74.0321 187.682L72.5852 187.291L70.3518 195.528Z" fill="#FFAF00"/>
<path d="M62.1359 192.567L68.6462 194.981L69.0967 193.767L66.5443 192.82L69.0635 186.032L67.658 185.511L65.1388 192.299L62.5864 191.353L62.1359 192.567Z" fill="#FFAF00"/>
<path d="M60.8082 185.24L60.8293 185.223C61.5838 184.665 62.0649 184.348 62.5637 184.584C63.0409 184.809 63.2391 185.035 63.3391 185.188L63.8768 184.05C63.706 183.85 63.405 183.589 63.058 183.425C62.2013 183.021 61.3024 183.127 60.027 184.142L54.1198 188.87L55.5839 189.561L59.4485 186.322L59.3578 191.342L60.8543 192.049L60.8082 185.24Z" fill="#FFAF00"/>
<path d="M48.7099 179.64L50.0006 180.403C50.7753 179.398 51.7922 178.927 52.99 179.634C54.5595 180.561 54.3349 182.307 53.5297 183.67C52.7307 185.022 51.2773 186.043 49.7285 185.129C48.7785 184.568 48.3978 183.633 48.7469 182.642L47.4665 181.886C46.7078 183.735 47.595 185.345 49.0613 186.21C51.2916 187.527 53.5986 186.523 54.8307 184.438C56.2032 182.116 55.743 179.784 53.6675 178.558C51.8296 177.473 49.8994 177.934 48.7099 179.64Z" fill="#FFAF00"/>
<path d="M41.0181 180.687L42.308 181.625L50.005 176.652L48.7539 175.743L46.7417 177.081L44.0068 175.093L44.6806 172.781L43.3811 171.836L41.0181 180.687ZM43.6637 176.237L45.7682 177.767L42.5753 179.892L43.6637 176.237Z" fill="#FFAF00"/>
<path d="M33.9562 160.202L31.5393 162.617L32.2178 163.295L27.0958 168.415L31.0305 172.348L31.9634 171.415C33.6255 169.754 35.6692 168.372 36.9412 168.016L37.5263 168.601L39.9431 166.186L38.917 165.16L37.4161 166.66L33.4813 162.728L34.9823 161.227L33.9562 160.202ZM33.2778 164.355L35.8048 166.881C34.677 167.262 32.7774 168.534 31.2765 170.034L30.9118 170.398L29.0716 168.559L33.2778 164.355Z" fill="#FFAF00"/>
<path d="M22.603 163.535C24.2542 165.561 26.7335 165.49 28.6768 163.908C30.7409 162.228 31.0997 159.802 29.5545 157.906C28.0169 156.019 25.5601 155.871 23.4959 157.551C21.4411 159.225 21.0806 161.667 22.603 163.535ZM23.5945 162.759C22.5947 161.532 22.9254 159.964 24.441 158.73C25.9566 157.496 27.5784 157.474 28.5631 158.682C29.578 159.928 29.2473 161.496 27.7038 162.752C26.2068 163.971 24.5867 163.976 23.5945 162.759Z" fill="#FFAF00"/>
<path d="M13.6825 150.564L14.8156 152.316L21.6753 150.623L17.3618 156.251L18.5013 158.013L25.6717 153.379L24.9033 152.191L19.3745 155.764L23.5813 150.148L22.9171 149.121L16.0989 150.701L21.6278 147.128L20.8528 145.93L13.6825 150.564Z" fill="#FFAF00"/>
<path d="M8.00604 139.232L10.9321 145.486L18.667 141.871L18.032 140.514L11.4704 143.581L9.81431 140.041L16.3759 136.974L15.7409 135.617L8.00604 139.232Z" fill="#FFAF00"/>
<path d="M12.7876 127.579L4.73815 130.427L6.59884 135.681L11.324 134.188C13.3943 133.532 13.8895 133.852 14.0936 134.429C14.1336 134.542 14.207 134.821 14.1992 135.014L15.2845 134.63C15.2803 134.403 15.2434 134.047 15.1314 133.731C14.7232 132.578 13.506 131.979 11.2242 132.684L7.33965 133.893L6.45932 131.407L13.2878 128.992L12.7876 127.579Z" fill="#FFAF00"/>
<path d="M12.219 125.768L11.7962 124.082L4.55229 122.116L10.9037 120.524L10.5392 119.071L2.2567 121.147L2.67959 122.833L9.92347 124.799L3.57204 126.39L3.9366 127.844L12.219 125.768Z" fill="#FFAF00"/>
<path d="M0.705423 111.796L0.92972 113.277L4.28544 112.769L4.87041 116.633L1.51469 117.141L1.73898 118.622L10.1817 117.345L9.95736 115.864L6.1629 116.438L5.57793 112.574L9.37239 112L9.14809 110.519L0.705423 111.796Z" fill="#FFAF00"/>
<path d="M0.0669641 102.854L0.468621 109.783L1.76166 109.708L1.60419 106.991L8.83564 106.573L8.74893 105.077L1.51748 105.496L1.36 102.779L0.0669641 102.854Z" fill="#FFAF00"/>
<path d="M6.21771 98.5415L6.24136 98.5541C7.05657 99.0198 7.53999 99.3326 7.52509 99.8838C7.51083 100.411 7.3835 100.683 7.28338 100.837L8.54215 100.871C8.65653 100.634 8.77479 100.253 8.78516 99.8699C8.81075 98.9233 8.35195 98.1435 6.90882 97.385L0.201191 93.8823L0.157454 95.4999L4.67997 97.7325L0.0447092 99.6698L0 101.323L6.21771 98.5415Z" fill="#FFAF00"/>
<path d="M6.42368 85.3145L6.25072 86.8029C7.48356 87.1029 8.3275 87.8404 8.167 89.2216C7.95669 91.0314 6.26823 91.5353 4.69577 91.3528C3.13522 91.1716 1.61142 90.2586 1.81896 88.4726C1.94626 87.3772 2.6465 86.65 3.69451 86.5665L3.86608 85.09C1.86729 85.1476 0.755472 86.6114 0.558996 88.3022C0.260132 90.8741 2.11509 92.5737 4.52143 92.853C7.20177 93.1642 9.14747 91.7972 9.42558 89.4039C9.67187 87.2845 8.46657 85.7086 6.42368 85.3145Z" fill="#FFAF00"/>
<path d="M2.33848 78.7053L2.00382 80.2641L9.67232 85.2803L9.99691 83.7684L7.95688 82.4727L8.66645 79.1676L11.0537 78.846L11.3909 77.2755L2.33848 78.7053ZM7.4812 79.318L6.93518 81.8612L3.69675 79.8058L7.4812 79.318Z" fill="#FFAF00"/>
<path d="M18.3465 63.6632L15.1648 62.4152L14.8143 63.3079L8.07133 60.663L6.03853 65.8405L7.26655 66.3222C9.45466 67.1804 11.5389 68.5001 12.3741 69.5231L12.0718 70.293L15.2535 71.541L15.7836 70.1908L13.8076 69.4157L15.8404 64.2383L17.8163 65.0133L18.3465 63.6632ZM14.2667 64.7026L12.9611 68.0278C12.1603 67.1471 10.2348 65.9154 8.25875 65.1404L7.77871 64.9521L8.72939 62.5307L14.2667 64.7026Z" fill="#FFAF00"/>
<path d="M10.6846 54.7073C9.49003 57.0318 10.5491 59.2734 12.7786 60.4181C15.1469 61.634 17.5139 60.9896 18.6317 58.8144C19.744 56.6499 18.8949 54.3409 16.5267 53.125C14.1691 51.9146 11.786 52.5642 10.6846 54.7073ZM11.7937 55.3037C12.517 53.8963 14.0867 53.5703 15.8256 54.463C17.5644 55.3557 18.2349 56.8319 17.5225 58.218C16.7883 59.6468 15.2186 59.9728 13.4477 59.0637C11.7302 58.1819 11.0759 56.7005 11.7937 55.3037Z" fill="#FFAF00"/>
<path d="M18.9672 41.3857L17.8149 43.1246L22.1126 48.7302L15.2256 47.0321L14.0667 48.781L21.1856 53.4937L21.967 52.3145L16.4779 48.6806L23.3114 50.2858L23.9868 49.2665L19.8089 43.6539L25.298 47.2877L26.0861 46.0985L18.9672 41.3857Z" fill="#FFAF00"/>
<path d="M26.8914 31.8308L22.3366 37.0217L28.7562 42.6491L29.7447 41.5227L24.2988 36.7488L26.8767 33.8109L32.3226 38.5848L33.311 37.4583L26.8914 31.8308Z" fill="#FFAF00"/>
<path d="M39.3814 31.5689L33.5216 25.3612L29.4654 29.1863L32.7423 32.9023C34.1796 34.5298 34.0863 35.1121 33.6414 35.5317C33.5542 35.6139 33.3284 35.7939 33.1482 35.865L33.9383 36.702C34.1447 36.6062 34.4552 36.4287 34.6995 36.1984C35.5892 35.3593 35.6456 34.0042 34.0776 32.2034L31.401 29.1408L33.3201 27.3311L38.291 32.5972L39.3814 31.5689Z" fill="#FFAF00"/>
<path d="M40.8445 30.249L42.2164 29.1809L41.088 21.7637L45.1116 26.927L46.2943 26.0063L41.0473 19.2731L39.6754 20.3412L40.8039 27.7584L36.7803 22.5951L35.5976 23.5158L40.8445 30.249Z" fill="#FFAF00"/>
<path d="M48.988 14.0257L47.7232 14.83L49.5451 17.6921L46.2466 19.7898L44.4247 16.9277L43.1599 17.7321L47.7437 24.9327L49.0084 24.1284L46.9483 20.8921L50.2468 18.7944L52.307 22.0307L53.5717 21.2263L48.988 14.0257Z" fill="#FFAF00"/>
<path d="M57.0208 9.73658L50.8442 12.9077L51.436 14.0592L53.8575 12.816L57.1672 19.2561L58.5006 18.5715L55.191 12.1314L57.6125 10.8881L57.0208 9.73658Z" fill="#FFAF00"/>
<path d="M63.3933 13.634L63.3913 13.6608C63.2944 14.5943 63.2035 15.1626 62.693 15.3717C62.2047 15.5717 61.904 15.5654 61.7234 15.5357L62.2009 16.7003C62.4638 16.7093 62.8598 16.6636 63.2149 16.5182C64.0916 16.1591 64.6199 15.4245 64.7309 13.7986L65.2262 6.25063L63.7281 6.86426L63.5123 11.9012L59.8664 8.44607L58.335 9.07333L63.3933 13.634Z" fill="#FFAF00"/>
<path d="M75.5893 8.48148L74.1566 8.92243C74.3782 10.1712 74.0425 11.2402 72.7129 11.6494C70.9708 12.1856 69.8296 10.8437 69.3637 9.33149C68.9013 7.83076 69.124 6.06902 70.8433 5.53988C71.8977 5.21534 72.8457 5.56324 73.344 6.48849L74.7653 6.05106C73.9078 4.24549 72.1196 3.81757 70.4921 4.31849C68.0164 5.08045 67.2066 7.46186 67.9195 9.77597C68.7136 12.3536 70.7489 13.5834 73.0527 12.8744C75.0928 12.2464 76.0509 10.5092 75.5893 8.48148Z" fill="#FFAF00"/>
<path d="M79.8098 2.11576L78.2478 2.43835L76.7482 11.4751L78.2633 11.1623L78.6267 8.77383L81.9387 8.08985L83.196 10.1436L84.7698 9.81855L79.8098 2.11576ZM81.3231 7.06644L78.7745 7.59277L79.3501 3.80189L81.3231 7.06644Z" fill="#FFAF00"/>
<path d="M99.5605 10.6581L99.4023 7.24552L98.4439 7.28991L98.1086 0.0576432L92.55 0.31511L92.6111 1.63224C92.7199 3.97914 92.3648 6.41952 91.7712 7.59898L90.9446 7.63727L91.1028 11.0498L92.5524 10.9827L92.4541 8.86331L98.0127 8.60584L98.111 10.7252L99.5605 10.6581ZM96.9465 7.35927L93.3765 7.52462C93.8542 6.43453 94.1936 4.17487 94.0954 2.05548L94.0715 1.5406L96.6711 1.42019L96.9465 7.35927Z" fill="#FFAF00"/>
<path d="M105.344 0.00853061C102.734 -0.142624 101.111 1.73256 100.966 4.2336C100.812 6.89021 102.36 8.79288 104.802 8.93432C107.233 9.07508 109.002 7.36448 109.156 4.70787C109.309 2.06322 107.75 0.147898 105.344 0.00853061ZM105.247 1.26365C106.827 1.35517 107.761 2.65796 107.648 4.60853C107.535 6.55911 106.455 7.76934 104.899 7.6792C103.295 7.58629 102.361 6.28351 102.476 4.29703C102.588 2.37039 103.678 1.17282 105.247 1.26365Z" fill="#FFAF00"/>
<path d="M121.121 2.21135L119.064 1.85984L115.669 8.05309L114.442 1.06993L112.374 0.716393L110.935 9.12891L112.33 9.36729L113.439 2.88068L114.729 9.7774L115.935 9.98346L119.385 3.89685L118.276 10.3835L119.682 10.6239L121.121 2.21135Z" fill="#FFAF00"/>
<path d="M133.126 5.62561L126.54 3.54392L123.966 11.6814L125.395 12.1331L127.579 5.23L131.307 6.40818L129.123 13.3113L130.552 13.7631L133.126 5.62561Z" fill="#FFAF00"/>
<path d="M138.706 17.0984L142.061 9.25047L136.934 7.06001L134.833 11.5463C133.913 13.5131 133.342 13.66 132.78 13.4198C132.669 13.3727 132.414 13.2376 132.277 13.1008L131.824 14.1589C131.995 14.3099 132.282 14.5236 132.59 14.6555C133.715 15.136 134.981 14.6468 136.007 12.4911L137.748 8.81571L140.174 9.85205L137.327 16.5096L138.706 17.0984Z" fill="#FFAF00"/>
<path d="M140.668 18.0163L142.194 18.8502L148.555 14.8677L145.414 20.61L146.729 21.3289L150.826 13.8407L149.3 13.0068L142.939 16.9893L146.08 11.247L144.765 10.5281L140.668 18.0163Z" fill="#FFAF00"/>
<path d="M158.304 18.7227L157.06 17.8862L155.165 20.7005L151.921 18.5189L153.816 15.7045L152.573 14.868L147.805 21.9487L149.049 22.7852L151.192 19.6029L154.435 21.7845L152.293 24.9669L153.536 25.8034L158.304 18.7227Z" fill="#FFAF00"/>
<path d="M165.402 24.3178L160.018 19.9344L159.2 20.9381L161.311 22.6567L156.736 28.2699L157.898 29.2163L162.473 23.603L164.584 25.3215L165.402 24.3178Z" fill="#FFAF00"/>
<path d="M164.272 31.6016L164.246 31.6105C163.352 31.898 162.795 32.0438 162.398 31.661C162.018 31.2949 161.903 31.0173 161.857 30.8401L160.983 31.7461C161.081 31.9901 161.282 32.334 161.559 32.6003C162.241 33.2576 163.126 33.445 164.66 32.8916L171.771 30.304L170.606 29.1807L165.906 31.0124L167.601 26.2852L166.41 25.1369L164.272 31.6016Z" fill="#FFAF00"/>
<path d="M174.12 40.9185L173.14 39.7848C172.085 40.4899 170.971 40.6128 170.062 39.5608C168.87 38.1823 169.64 36.5981 170.837 35.5635C172.026 34.5367 173.729 34.0318 174.906 35.3922C175.627 36.2266 175.69 37.2339 175.043 38.0622L176.015 39.1867C177.324 37.6758 176.997 35.8673 175.883 34.5795C174.189 32.6206 171.682 32.8375 169.849 34.4208C167.808 36.1843 167.5 38.5415 169.076 40.3644C170.472 41.9787 172.449 42.1566 174.12 40.9185Z" fill="#FFAF00"/>
<path d="M181.753 42.3671L180.829 41.0677L171.949 43.3323L172.845 44.5927L175.179 43.9641L177.138 46.7193L175.763 48.6962L176.694 50.0054L181.753 42.3671ZM177.828 45.7441L176.32 43.6239L180.024 42.6251L177.828 45.7441Z" fill="#FFAF00"/>
<path d="M181.914 64.006L184.977 62.4903L184.551 61.6309L191.043 58.4187L188.574 53.4343L187.392 54.0193C185.285 55.0616 182.906 55.7169 181.587 55.6474L181.22 54.9062L178.157 56.4219L178.801 57.7217L180.703 56.7804L183.172 61.7649L181.27 62.7062L181.914 64.006ZM183.886 60.2881L182.3 57.0869C183.491 57.0862 185.698 56.4892 187.6 55.5479L188.062 55.3192L189.217 57.6503L183.886 60.2881Z" fill="#FFAF00"/>
<path d="M193.717 64.386C192.798 61.9395 190.426 61.216 188.079 62.0961C185.587 63.031 184.472 65.2156 185.332 67.505C186.187 69.7833 188.468 70.7074 190.961 69.7725C193.442 68.8419 194.564 66.6418 193.717 64.386ZM192.529 64.8058C193.085 66.2872 192.272 67.6678 190.441 68.3542C188.611 69.0406 187.067 68.5443 186.519 67.0853C185.955 65.5815 186.769 64.2008 188.633 63.5018C190.44 62.8238 191.977 63.3356 192.529 64.8058Z" fill="#FFAF00"/>
<path d="M198.078 79.7666L197.571 77.7435L190.531 77.1348L196.43 73.1974L195.92 71.1626L187.638 73.2382L187.982 74.6101L194.368 73.0098L188.574 76.9704L188.871 78.1564L195.835 78.8581L189.449 80.4585L189.796 81.8421L198.078 79.7666Z" fill="#FFAF00"/>
<path d="M199.805 92.3846L199.061 85.5204L190.572 86.4398L190.733 87.9294L197.935 87.1495L198.356 91.0344L191.155 91.8144L191.316 93.304L199.805 92.3846Z" fill="#FFAF00"/>
<path d="M191.536 101.647L200.074 101.515L199.988 95.9419L195.033 95.8506C192.861 95.8121 192.494 95.3503 192.485 94.739C192.483 94.6192 192.503 94.3311 192.572 94.1502L191.421 94.168C191.352 94.3849 191.274 94.7337 191.279 95.0693C191.298 96.2918 192.26 97.248 194.648 97.3071L198.715 97.4002L198.756 100.037L191.513 100.149L191.536 101.647Z" fill="#FFAF00"/>
</svg>
