<svg width="150" height="37" viewBox="0 0 150 37" fill="none" xmlns="http://www.w3.org/2000/svg">
<rect width="150" height="37" fill="#D9D6C9"/>
<path d="M24.5184 23V19.416H28.1344V23H29.9584V14.744H28.1344V17.976H24.5184V14.744H22.6944V23H24.5184ZM39.2739 20.424H37.5299C37.1619 21.48 36.5699 21.928 35.5619 21.928C34.1539 21.928 33.3379 20.984 33.2899 19.32H39.3859V19.128C39.3859 16.28 37.8819 14.504 35.4659 14.504C33.1459 14.504 31.4659 16.376 31.4659 18.968C31.4659 21.432 32.9859 23.272 35.5299 23.272C37.3859 23.272 38.8579 22.232 39.2739 20.424ZM37.5619 18.104H33.3219C33.4979 16.648 34.2499 15.864 35.4499 15.864C36.6499 15.864 37.4499 16.712 37.5619 18.104ZM46.969 16.184V14.744H39.705V16.184H42.425V23H44.249V16.184H46.969ZM59.836 20.664C59.836 19.56 59.324 18.808 58.284 18.536V18.504C59.068 18.136 59.468 17.672 59.468 16.76C59.468 15.48 58.556 14.744 57.02 14.744H52.46V23H56.796C58.748 23 59.836 22.152 59.836 20.664ZM56.796 19.352C57.596 19.352 58.028 19.784 58.028 20.504C58.028 21.24 57.596 21.624 56.796 21.624H54.284V19.352H56.796ZM56.556 16.12C57.308 16.12 57.66 16.392 57.66 17.032C57.66 17.672 57.276 18.024 56.604 18.024H54.284V16.12H56.556ZM67.6278 23V19.416H71.2438V23H73.0677V14.744H71.2438V17.976H67.6278V14.744H65.8038V23H67.6278ZM74.9113 17.288H76.6393C76.7833 16.216 77.2953 15.816 78.4793 15.816C79.6313 15.816 80.1753 16.216 80.1753 17.064C80.1753 17.368 80.1433 17.56 80.0633 17.656C79.8873 17.896 79.5193 17.976 78.2552 18.136C76.6073 18.344 74.5592 18.552 74.5592 20.744C74.5592 22.264 75.6313 23.208 77.3433 23.208C78.4313 23.208 79.4873 22.936 80.2393 22.216C80.3673 22.936 80.8793 23.208 81.5833 23.208C81.9353 23.208 82.1913 23.176 82.7673 23.032V21.752C82.5433 21.784 82.4792 21.784 82.3513 21.784C82.0153 21.784 81.9193 21.656 81.9193 21.176V16.984C81.9193 15.208 80.4793 14.488 78.5273 14.488C76.5113 14.488 75.1193 15.256 74.9113 17.288ZM80.1593 18.856V19.832C80.1593 20.328 80.1753 20.872 79.7913 21.256C79.3753 21.672 78.6713 21.912 77.9193 21.912C76.9753 21.912 76.4313 21.464 76.4313 20.68C76.4313 19.592 77.3913 19.432 78.2393 19.304C78.8953 19.208 79.5673 19.192 80.1593 18.856ZM91.1779 23V14.744H85.0819L84.9379 19.624C84.8899 21.288 84.3299 21.672 83.7859 21.672C83.6099 21.672 83.2579 21.656 83.1299 21.592V23.016C83.3699 23.112 83.8499 23.192 84.2499 23.192C85.7379 23.192 86.6499 21.96 86.7139 19.8L86.8259 16.184H89.3539V23H91.1779ZM95.3734 23L98.4614 16.984H98.5094V23H100.333V14.744H98.0294L94.9414 20.76H94.8934V14.744H93.0694V23H95.3734ZM107.169 19.496V23H108.993V14.744H107.169V17.992C106.753 18.168 105.825 18.392 105.201 18.392C104.193 18.392 103.697 17.88 103.697 16.824V14.744H101.873V17.464C101.873 19.064 102.833 19.928 104.481 19.928C105.473 19.928 106.657 19.656 107.169 19.496ZM113.155 23L116.243 16.984H116.291V23H118.115V14.744H115.811L112.723 20.76H112.675V14.744H110.851V23H113.155ZM122.342 23L125.43 16.984H125.478V23H127.302V14.744H124.998L121.91 20.76H121.862V14.744H120.038V23H122.342Z" fill="white"/>
</svg>
