<svg width="75" height="37" viewBox="0 0 75 37" fill="none" xmlns="http://www.w3.org/2000/svg">
<rect width="75" height="37" fill="#FFAF00"/>
<path d="M30.5353 17.144C30.5353 15.272 28.9673 14.504 27.0793 14.504C24.9673 14.504 23.7033 15.432 23.7033 17C23.7033 18.776 25.1913 19.016 27.0793 19.48C28.1193 19.736 29.0473 19.88 29.0473 20.712C29.0473 21.448 28.3433 21.912 27.2713 21.912C26.1353 21.912 25.3673 21.448 25.2713 20.36H23.5273C23.6233 22.248 24.9033 23.24 27.2393 23.24C29.4473 23.24 30.8393 22.184 30.8393 20.52C30.8393 18.696 29.0793 18.328 27.6393 17.992C26.3113 17.688 25.5273 17.624 25.5273 16.792C25.5273 16.184 26.0713 15.832 26.9993 15.832C27.9753 15.832 28.6633 16.136 28.7913 17.144H30.5353ZM32.2081 17.288H33.9361C34.0801 16.216 34.5921 15.816 35.7761 15.816C36.9281 15.816 37.4721 16.216 37.4721 17.064C37.4721 17.368 37.4401 17.56 37.3601 17.656C37.1841 17.896 36.8161 17.976 35.5521 18.136C33.9041 18.344 31.8561 18.552 31.8561 20.744C31.8561 22.264 32.9281 23.208 34.6401 23.208C35.7281 23.208 36.7841 22.936 37.5361 22.216C37.6641 22.936 38.1761 23.208 38.8801 23.208C39.2321 23.208 39.4881 23.176 40.0641 23.032V21.752C39.8401 21.784 39.7761 21.784 39.6481 21.784C39.3121 21.784 39.2161 21.656 39.2161 21.176V16.984C39.2161 15.208 37.7761 14.488 35.8241 14.488C33.8081 14.488 32.4161 15.256 32.2081 17.288ZM37.4561 18.856V19.832C37.4561 20.328 37.4721 20.872 37.0881 21.256C36.6721 21.672 35.9681 21.912 35.2161 21.912C34.2721 21.912 33.7281 21.464 33.7281 20.68C33.7281 19.592 34.6881 19.432 35.5361 19.304C36.1921 19.208 36.8641 19.192 37.4561 18.856ZM43.0508 11.608H41.2428V23H43.0508V11.608ZM52.4301 20.424H50.6861C50.3181 21.48 49.7261 21.928 48.7181 21.928C47.3101 21.928 46.4941 20.984 46.4461 19.32H52.5421V19.128C52.5421 16.28 51.0381 14.504 48.6221 14.504C46.3021 14.504 44.6221 16.376 44.6221 18.968C44.6221 21.432 46.1421 23.272 48.6861 23.272C50.5421 23.272 52.0141 22.232 52.4301 20.424ZM50.7181 18.104H46.4781C46.6541 16.648 47.4061 15.864 48.6061 15.864C49.8061 15.864 50.6061 16.712 50.7181 18.104Z" fill="white"/>
</svg>
